<svg xmlns="http://www.w3.org/2000/svg" xmlns:xlink="http://www.w3.org/1999/xlink" version="1.1" x="0px" y="0px" viewBox="0 0 100 125" style="enable-background:new 0 0 100 100;" xml:space="preserve"><style type="text/css">
	.st0{fill-rule:evenodd;clip-rule:evenodd;}
</style><path d="M24.072,74.697h-3.957l0.93-5.452c0.087-0.511-0.257-0.996-0.768-1.083c-0.511-0.088-0.996,0.257-1.083,0.768l-0.983,5.768  h-6.256c-0.518,0-0.939,0.42-0.939,0.939c0,0.519,0.42,0.939,0.939,0.939h5.936l-0.679,3.984h-5.256  c-0.518,0-0.939,0.42-0.939,0.939c0,0.519,0.42,0.939,0.939,0.939h4.936l-0.93,5.452c-0.087,0.511,0.257,0.996,0.768,1.083  c0.053,0.009,0.107,0.014,0.159,0.014c0.449,0,0.846-0.323,0.924-0.781l0.983-5.768h3.957l-0.93,5.452  c-0.087,0.511,0.257,0.996,0.768,1.083c0.053,0.009,0.107,0.014,0.159,0.014c0.449,0,0.846-0.323,0.924-0.781l0.983-5.768h6.256  c0.518,0,0.939-0.42,0.939-0.939c0-0.519-0.42-0.939-0.939-0.939h-5.936l0.679-3.984h5.257c0.518,0,0.939-0.42,0.939-0.939  c0-0.519-0.42-0.939-0.939-0.939h-4.936l0.93-5.452c0.087-0.511-0.257-0.996-0.768-1.083c-0.511-0.088-0.996,0.257-1.083,0.768  L24.072,74.697z M23.073,80.558h-3.957l0.679-3.984h3.957L23.073,80.558z M16.152,28.304c6.7,0,12.152-5.451,12.152-12.152  c0-6.701-5.451-12.152-12.152-12.152c-6.701,0-12.152,5.451-12.152,12.152C4.001,22.853,9.452,28.304,16.152,28.304z M16.152,5.878  c5.665,0,10.274,4.609,10.274,10.274s-4.609,10.274-10.274,10.274S5.878,21.818,5.878,16.152S10.487,5.878,16.152,5.878z   M15.023,22.538c0.293,0.317,0.705,0.499,1.129,0.499c0.425,0,0.837-0.182,1.129-0.499c0.233-0.252,0.55-0.571,0.917-0.941  c2.336-2.351,4.433-4.616,4.433-6.479c0-2.262-1.727-4.103-3.849-4.103c-0.991,0-1.928,0.411-2.63,1.11  c-0.702-0.699-1.64-1.11-2.631-1.11c-2.122,0-3.849,1.841-3.849,4.103c0,1.864,2.097,4.128,4.433,6.479  C14.473,21.967,14.79,22.286,15.023,22.538z M13.522,12.892c0.757,0,1.435,0.478,1.77,1.246c0.149,0.342,0.487,0.563,0.86,0.563  s0.711-0.221,0.86-0.563c0.335-0.769,1.014-1.246,1.77-1.246c1.087,0,1.971,0.998,1.971,2.226c0,1.244-2.625,3.886-3.887,5.156  c-0.266,0.268-0.507,0.51-0.715,0.726c-0.208-0.216-0.449-0.458-0.715-0.726c-1.262-1.27-3.887-3.912-3.887-5.156  C11.551,13.89,12.435,12.892,13.522,12.892z M74.182,4.001c-12.03,0-21.818,9.787-21.818,21.818c0,1.014,0.071,2.012,0.206,2.99  H25.274c-4.527,0-8.21,3.683-8.21,8.21v21.136c0,1.199,0.26,2.337,0.724,3.365C9.841,63.212,4.001,70.312,4.001,78.566  c0,9.613,7.821,17.433,17.433,17.433s17.433-7.821,17.433-17.433c0-4.636-1.788-8.964-4.977-12.203h12.527l13.672,11.244  c0.171,0.141,0.383,0.214,0.596,0.214c0.136,0,0.273-0.03,0.401-0.09c0.328-0.155,0.538-0.486,0.538-0.849V66.363h5.212  c4.527,0,8.21-3.683,8.21-8.21V47.617c11.632-0.455,20.954-10.058,20.954-21.799C95.999,13.788,86.212,4.001,74.182,4.001z   M36.989,78.566c0,8.577-6.978,15.556-15.556,15.556S5.878,87.144,5.878,78.566c0-7.589,5.531-14.084,12.952-15.336  c1.505,1.906,3.833,3.133,6.444,3.133h5.806C34.839,69.336,36.989,73.765,36.989,78.566z M66.835,64.486h-6.15  c-0.518,0-0.939,0.42-0.939,0.939v9.47L47.35,64.7c-0.168-0.138-0.379-0.214-0.596-0.214H25.274c-3.491,0-6.332-2.84-6.332-6.332  V37.018c0-3.492,2.841-6.332,6.332-6.332h27.638c0.668,2.919,1.923,5.616,3.634,7.961H28.404c-0.518,0-0.939,0.42-0.939,0.939  s0.42,0.939,0.939,0.939H58.08c3.779,4.134,9.125,6.813,15.087,7.087v10.542C73.167,61.645,70.327,64.486,66.835,64.486z   M74.182,45.759c-10.995,0-19.94-8.945-19.94-19.94s8.945-19.94,19.94-19.94c10.995,0,19.94,8.945,19.94,19.94  S85.177,45.759,74.182,45.759z M76.92,66.415c-6.7,0-12.152,5.451-12.152,12.152s5.451,12.152,12.152,12.152  c6.701,0,12.152-5.451,12.152-12.152S83.62,66.415,76.92,66.415z M76.92,88.84c-5.665,0-10.274-4.609-10.274-10.274  c0-5.665,4.609-10.274,10.274-10.274c5.665,0,10.274,4.609,10.274,10.274C87.194,84.231,82.585,88.84,76.92,88.84z M84.309,78.566  c0,0.519-0.42,0.939-0.939,0.939h-5.512v5.512c0,0.519-0.42,0.939-0.939,0.939s-0.939-0.42-0.939-0.939v-5.512h-5.512  c-0.518,0-0.939-0.42-0.939-0.939c0-0.519,0.42-0.939,0.939-0.939h5.512v-5.512c0-0.519,0.42-0.939,0.939-0.939  s0.939,0.42,0.939,0.939v5.512h5.512C83.889,77.627,84.309,78.048,84.309,78.566z M86.025,17.938h-7.882  c-0.862-1.727-0.641-2.519-0.345-3.583c0.225-0.809,0.48-1.725,0.317-3.054c-0.17-1.384-0.912-2.719-1.89-3.401  c-0.685-0.477-1.452-0.633-2.217-0.453c-0.631,0.149-2.111,0.792-2.211,3.526c-0.059,1.601-1.31,4.12-2.293,5.059  c-0.266,0.254-0.528,0.481-0.806,0.722c-0.6,0.52-1.215,1.055-1.826,1.832c-0.525-0.422-1.192-0.677-1.917-0.677h-2.68  c-1.69,0-3.065,1.375-3.065,3.065v13.302c0,0.817,0.319,1.587,0.899,2.166c0.58,0.58,1.349,0.899,2.166,0.899c0,0,0,0,0.001,0h2.68  c0.998,0,1.883-0.481,2.443-1.222c1.475,1.219,3.501,1.22,5.077,1.22h10.215c1.726,0,3.129-1.404,3.129-3.129  c0-0.609-0.175-1.177-0.477-1.659c0.947-0.539,1.588-1.557,1.588-2.723c0-0.59-0.164-1.143-0.449-1.615  c0.991-0.526,1.668-1.569,1.668-2.767c0-0.628-0.186-1.214-0.506-1.704c0.904-0.549,1.51-1.544,1.51-2.677  C89.154,19.342,87.75,17.938,86.025,17.938z M66.143,34.276c0,0.655-0.533,1.188-1.188,1.188h-2.681  c-0.316,0-0.613-0.124-0.839-0.349c-0.225-0.225-0.349-0.523-0.349-0.839V20.975c0-0.655,0.533-1.188,1.188-1.188h2.68  c0.655,0,1.188,0.533,1.188,1.188V34.276z M86.025,22.319h-1.004c-0.519,0-0.939,0.42-0.939,0.939c0,0.519,0.42,0.939,0.939,0.939  c0.69,0,1.252,0.562,1.252,1.252c0,0.69-0.562,1.252-1.252,1.252h-1.219c-0.518,0-0.939,0.42-0.939,0.939  c0,0.519,0.42,0.939,0.939,0.939c0.69,0,1.252,0.562,1.252,1.252s-0.562,1.252-1.252,1.252h-1.111c-0.518,0-0.939,0.42-0.939,0.939  s0.42,0.939,0.939,0.939c0.69,0,1.252,0.562,1.252,1.252c0,0.69-0.562,1.252-1.252,1.252H72.475c-2.151,0-3.64-0.109-4.455-1.477  V20.975c0-0.229-0.027-0.452-0.075-0.668c0.629-0.959,1.261-1.509,1.983-2.134c0.282-0.245,0.575-0.498,0.873-0.783  c1.291-1.234,2.793-4.21,2.872-6.348c0.018-0.481,0.128-1.616,0.767-1.768c0.152-0.036,0.391-0.058,0.712,0.166  c0.543,0.378,0.995,1.237,1.1,2.089c0.117,0.957-0.067,1.619-0.263,2.321c-0.245,0.881-0.513,1.843-0.162,3.246  c-0.287-0.189-0.668-0.212-0.986-0.029c-0.449,0.259-0.603,0.833-0.344,1.282c0.545,0.945,1.4,1.465,2.405,1.465h0.658  c0.012,0,0.024,0,0.035,0h8.428c0.69,0,1.252,0.562,1.252,1.252S86.715,22.319,86.025,22.319z M47.692,55.586  c0,0.519-0.42,0.939-0.939,0.939h-18.35c-0.518,0-0.939-0.42-0.939-0.939s0.42-0.939,0.939-0.939h18.35  C47.272,54.647,47.692,55.067,47.692,55.586z M64.645,47.586c0,0.519-0.42,0.939-0.939,0.939H28.404  c-0.518,0-0.939-0.42-0.939-0.939s0.42-0.939,0.939-0.939h35.302C64.224,46.647,64.645,47.067,64.645,47.586z"/><text x="0" y="115" fill="#000000" font-size="5px" font-weight="bold" font-family="'Helvetica Neue', Helvetica, Arial-Unicode, Arial, Sans-serif">Created by Nuricon</text><text x="0" y="120" fill="#000000" font-size="5px" font-weight="bold" font-family="'Helvetica Neue', Helvetica, Arial-Unicode, Arial, Sans-serif">from the Noun Project</text></svg>