<svg xmlns="http://www.w3.org/2000/svg" viewBox="0 0 32 40" x="0px" y="0px"><title>Artboard 21</title><g data-name="Layer 2"><path d="M22,10.5A2.5,2.5,0,1,0,19.5,8,2.5,2.5,0,0,0,22,10.5Zm0-4A1.5,1.5,0,1,1,20.5,8,1.5,1.5,0,0,1,22,6.5Z"/><path d="M21.5,19v5a.5.5,0,0,0,1,0V19a.5.5,0,0,0-1,0Z"/><path d="M24,10.5a.5.5,0,0,0,0,1c.81,0,1.5.5,1.5,1.1v4.8a1.2,1.2,0,0,1-1,1V14a.5.5,0,0,0-1,0V25a.5.5,0,0,1-.5.5H21a.5.5,0,0,1-.5-.5V14a.5.5,0,0,0-1,0v4.43a1.2,1.2,0,0,1-1-1V12.6c0-.6.69-1.1,1.5-1.1a.5.5,0,0,0,0-1,2.33,2.33,0,0,0-2.5,2.1v2.9H15.1V12.44A2,2,0,0,0,13,10.63a.5.5,0,1,0,0,1c.62,0,1.15.38,1.15.82V15.5h-.65V13.6a.5.5,0,0,0-1,0v1.9h-2.3V13.6a.5.5,0,0,0-1,0v1.9H8.5V12.44c0-.44.53-.82,1.15-.82a.5.5,0,1,0,0-1A2,2,0,0,0,7.5,12.44V15.5H6a.5.5,0,0,0,0,1h.5V26a.5.5,0,0,0,.5.5H18a.5.5,0,0,0,0-1H7.5v-2H11a.5.5,0,0,0,0-1H7.5v-3H14a.5.5,0,0,0,0-1H7.5v-2h10v.9a2.23,2.23,0,0,0,2,2.06V25A1.5,1.5,0,0,0,21,26.5h2A1.5,1.5,0,0,0,24.5,25V19.46a2.23,2.23,0,0,0,2-2.06V12.6A2.33,2.33,0,0,0,24,10.5Z"/><path d="M11.3,10.8A2.15,2.15,0,1,0,9.15,8.65,2.15,2.15,0,0,0,11.3,10.8Zm0-3.3a1.15,1.15,0,1,1-1.15,1.15A1.15,1.15,0,0,1,11.3,7.5Z"/></g><text x="0" y="47" fill="#000000" font-size="5px" font-weight="bold" font-family="'Helvetica Neue', Helvetica, Arial-Unicode, Arial, Sans-serif">Created by Afra Khautsar</text><text x="0" y="52" fill="#000000" font-size="5px" font-weight="bold" font-family="'Helvetica Neue', Helvetica, Arial-Unicode, Arial, Sans-serif">from the Noun Project</text></svg>